<svg fill="none" height="24" viewBox="0 0 24 24" width="24" xmlns="http://www.w3.org/2000/svg"><g stroke="#2a353d" stroke-linejoin="round" stroke-width="1.5"><path d="m15.1773 5.17735c-1.0837 1.08372-3.1395.7849-3.1395.7849s-.2989-2.05588.7849-3.1396c1.0837-1.08372 3.1395-.7849 3.1395-.7849s.2989 2.05588-.7849 3.1396z"/><path d="m4 14.0593c0 3.2817 2.19645 7.051 4.41889 7.8476.77051.2761 1.56689-.105 2.22901-.5795.5023-.36 1.1105-.7038 1.6018-.7038.4912 0 1.0994.3438 1.6017.7038.6621.4745 1.4585.8556 2.229.5795 1.5793-.566 3.1454-2.6331 3.9196-4.9596-1.4992-.4294-2.5943-1.7859-2.5943-3.3929 0-1.4723.9191-2.7343 2.2261-3.2658-.8421-1.49551-2.2182-2.2886-3.7729-2.2886-.8043 0-1.5435.32422-2.1406.71286-.953.62028-1.9842.62029-2.9373 0-.5971-.38864-1.33627-.71286-2.14056-.71286-2.56285 0-4.64044 2.1551-4.64044 6.0593z"/></g></svg>