<svg fill="none" height="24" viewBox="0 0 24 24" width="24" xmlns="http://www.w3.org/2000/svg"><g stroke="#2a353d" stroke-width="1.5"><g stroke-linejoin="round"><path d="m16 10 2.1494.6448c1.3732.412 2.0598.618 2.4552 1.1494s.3954 1.2483.3954 2.6819v7.5239"/><path d="m8 9h3m-3 4h3" stroke-linecap="round"/><path d="m12 22v-3c0-.9428 0-1.4142-.2929-1.7071s-.7643-.2929-1.7071-.2929h-1c-.94281 0-1.41421 0-1.70711.2929-.29289.2929-.29289.7643-.29289 1.7071v3"/></g><path d="m2 22h20" stroke-linecap="round"/><path d="m3 22v-15.28276c0-2.51075 0-3.76613.79118-4.389.79119-.62287 1.95624-.28469 4.28634.39166l4.99998 1.45132c1.4061.40815 2.1092.61222 2.5158 1.16843.4067.55622.4067 1.31379.4067 2.82892v13.83143" stroke-linecap="round" stroke-linejoin="round"/></g></svg>