<svg fill="none" height="24" viewBox="0 0 24 24" width="24" xmlns="http://www.w3.org/2000/svg"><g stroke="#2a353d" stroke-linecap="round" stroke-linejoin="round" stroke-width="1.5"><path d="m18 2v2m-12-2v2"/><path d="m2.5 12.2432c0-4.35726 0-6.53592 1.25212-7.88956s3.26737-1.35364 7.29788-1.35364h1.9c4.0305 0 6.0458 0 7.2979 1.35364s1.2521 3.5323 1.2521 7.88956v.5136c0 4.3573 0 6.5359-1.2521 7.8896-1.2521 1.3536-3.2674 1.3536-7.2979 1.3536h-1.9c-4.03051 0-6.04576 0-7.29788-1.3536-1.25212-1.3537-1.25212-3.5323-1.25212-7.8896z"/><path d="m3 8h18"/></g></svg>