<svg fill="none" height="24" viewBox="0 0 24 24" width="24" xmlns="http://www.w3.org/2000/svg"><g stroke="#2a353d" stroke-width="1.5"><path d="m4.5 21.5 4-4m2 0 4 4m-5-4v5" stroke-linecap="round" stroke-linejoin="round"/><path d="m2 11.875c0-2.06239 0-3.09359 1.02513-3.7343 1.02512-.6407 2.67504-.6407 5.97487-.6407h1c3.2998 0 4.9497 0 5.9749.6407 1.0251.64071 1.0251 1.67191 1.0251 3.7343v1.25c0 2.0624 0 3.0936-1.0251 3.7343-1.0252.6407-2.6751.6407-5.9749.6407h-1c-3.29983 0-4.94975 0-5.97487-.6407-1.02513-.6407-1.02513-1.6719-1.02513-3.7343z"/><path d="m17 10.2495.1259-.0755c2.1158-1.26965 3.1737-1.90446 4.0239-1.59795.8502.30652.8502 1.32271.8502 3.35515v1.1373c0 2.0324 0 3.0486-.8502 3.3551s-1.9081-.3283-4.0239-1.5979l-.1259-.0756" stroke-linecap="round"/><circle cx="12.5" cy="5" r="2.5"/><circle cx="7" cy="4.5" r="3"/></g></svg>