<svg fill="none" height="24" viewBox="0 0 24 24" width="24" xmlns="http://www.w3.org/2000/svg"><g stroke="#2a353d" stroke-width="1.5"><path d="m12 11v9" stroke-linecap="round"/><path d="m14 9c0 1.1046-.8954 2-2 2s-2-.8954-2-2c0-1.10457.8954-2 2-2s2 .89543 2 2z"/><g stroke-linecap="round" stroke-linejoin="round"><path d="m16.9588 6c.6598.86961 1.0412 1.89801 1.0412 3 0 1.102-.3814 2.1304-1.0412 3m-9.91763-6c-.65974.86961-1.04117 1.89801-1.04117 3 0 1.102.38143 2.1304 1.04117 3"/><path d="m20.3159 4c1.0637 1.43008 1.6841 3.14984 1.6841 5 0 1.8502-.6204 3.5699-1.6841 5m-16.63181-10c-1.06373 1.43008-1.68409 3.14984-1.68409 5 0 1.8502.62036 3.5699 1.68409 5"/></g></g></svg>