<svg fill="none" height="24" viewBox="0 0 24 24" width="24" xmlns="http://www.w3.org/2000/svg"><g stroke="#2a353d" stroke-linecap="round" stroke-width="1.5"><path d="m14 18c4.4183 0 8-3.5817 8-8 0-4.41828-3.5817-8-8-8-4.41828 0-8 3.58172-8 8 0 4.4183 3.58172 8 8 8z"/><path d="m3.1004 11c-.6971 1.1065-1.1004 2.4168-1.1004 3.8212 0 3.9647 3.21417 7.1788 7.17905 7.1788 1.40435 0 2.71445-.4032 3.82095-1.1002"/><path d="m12 10h3.5m-3.5 0v-2.5c0-.4714 0-.70711.1464-.85355.1465-.14645.3822-.14645.8536-.14645h1m-2 3.5v2.5c0 .4714 0 .7071.1464.8536.1465.1464.3822.1464.8536.1464h1m1.5-3.5c.8284 0 1.5-.7835 1.5-1.75s-.6716-1.75-1.5-1.75h-1.5m1.5 3.5c.8284 0 1.5.7835 1.5 1.75s-.6716 1.75-1.5 1.75h-1.5m0 0v1m0-8v-1"/></g></svg>