<svg fill="none" height="24" viewBox="0 0 24 24" width="24" xmlns="http://www.w3.org/2000/svg"><path d="m14 18c4.4183 0 8-3.5817 8-8 0-4.41828-3.5817-8-8-8-4.41828 0-8 3.58172-8 8 0 4.4183 3.58172 8 8 8z" stroke="#2a353d" stroke-linecap="round" stroke-width="1.5"/><path d="m3.15657 11c-.73134 1.1176-1.15657 2.4535-1.15657 3.8888 0 3.9274 3.18378 7.1112 7.11116 7.1112 1.43534 0 2.77124-.4252 3.88884-1.1566" stroke="#2a353d" stroke-linecap="round" stroke-width="1.5"/><path d="m14.7349 6c0-.41421-.3358-.75-.75-.75s-.75.33579-.75.75zm-1.5 8c0 .4142.3358.75.75.75s.75-.3358.75-.75zm1.8341-5.63041c.0814.40614.4766.6694.8827.58801.4062-.08139.6694-.47661.588-.88274zm-2.3363 3.24821c-.0883-.4047-.488-.6611-.8927-.5728-.4047.0884-.6611.4881-.5727.8928zm1.2522-2.48285c-.6061 0-.8621-.11584-.9598-.19367-.059-.04711-.1373-.13853-.1373-.43905h-1.5c0 .59041.1735 1.19035.7022 1.61187.4901.3908 1.1577.5208 1.8949.5208zm-1.0971-.63272c0-.38452.3925-.86317 1.0971-.86317v-1.5c-1.3357 0-2.5971.96584-2.5971 2.36317zm2.3622 2.99587c0 .3508-.1218.5187-.2748.6274-.191.1358-.5203.2358-.9903.2358v1.5c.6429 0 1.3211-.1305 1.8595-.5132.5763-.4098.9056-1.0485.9056-1.85zm-1.2651-.8632c.6138 0 .9139.1108 1.053.2182.0958.074.2121.2198.2121.645h1.5c0-.7271-.2196-1.3878-.7955-1.83235-.5325-.41111-1.2399-.5308-1.9696-.5308zm.75-3.74584v-.88906h-1.5v.88906zm-1.5 6.22224v.8887h1.5v-.8887zm.75-5.47224c.6184 0 1.0145.38354 1.0841.73053l1.4707-.29473c-.234-1.16794-1.3516-1.9358-2.5548-1.9358zm0 4.72224c-.7506 0-1.183-.4269-1.2522-.7435l-1.4654.32c.2617 1.1986 1.4807 1.9235 2.7176 1.9235z" fill="#2a353d"/></svg>