<svg fill="none" height="24" viewBox="0 0 24 24" width="24" xmlns="http://www.w3.org/2000/svg"><g stroke="#2a353d" stroke-linejoin="round"><path d="m2.46433 9.34375c-.24854 0-.47534-.20146-.46392-.4648.06692-1.54208.2544-2.54597.77967-3.34011.3022-.45688.67757-.85425 1.10915-1.17416 1.16652-.86468 2.81216-.86468 6.10343-.86468h4.01474c3.2912 0 4.9369 0 6.1034.86468.4316.31991.8069.71728 1.1091 1.17416.5253.79405.7128 1.79781.7797 3.33959.0114.26365-.2157.46532-.4645.46532-1.3858 0-2.5092 1.18925-2.5092 2.65625s1.1234 2.6562 2.5092 2.6562c.2488 0 .4759.2017.4645.4654-.0669 1.5418-.2544 2.5455-.7797 3.3396-.3022.4568-.6775.8542-1.1091 1.1741-1.1665.8647-2.8122.8647-6.1034.8647h-4.01474c-3.29127 0-4.93691 0-6.10343-.8647-.43158-.3199-.80695-.7173-1.10915-1.1741-.52527-.7942-.71275-1.7981-.77967-3.3401-.01142-.2634.21538-.4649.46392-.4649 1.38579 0 2.50919-1.1892 2.50919-2.6562s-1.1234-2.65625-2.50919-2.65625z" stroke-width="1.5"/><g stroke-linecap="round"><path d="m9.5 14.5 5-5" stroke-width="1.5"/><path d="m9.5 9.5h.01122m4.97758 5h.0112" stroke-width="2"/></g></g></svg>