<svg fill="none" height="24" viewBox="0 0 24 24" width="24" xmlns="http://www.w3.org/2000/svg"><g stroke="#2a353d" stroke-width="1.5"><path d="m13.5 13 3.5-4m-3 6c0 1.1046-.8954 2-2 2s-2-.8954-2-2 .8954-2 2-2 2 .8954 2 2z" stroke-linecap="round"/><path d="m6 12c0-3.31371 2.68629-6 6-6 1.0929 0 2.1175.29218 3 .80269" stroke-linecap="round"/><path d="m2.5 12.0001c0-4.47838 0-6.71755 1.39124-8.1088 1.39125-1.39124 3.63042-1.39124 8.10876-1.39124 4.4783 0 6.7175 0 8.1088 1.39124 1.3912 1.39125 1.3912 3.63042 1.3912 8.1088 0 4.4783 0 6.7175-1.3912 8.1087-1.3913 1.3913-3.6305 1.3913-8.1088 1.3913-4.47834 0-6.71751 0-8.10876-1.3913-1.39124-1.3912-1.39124-3.6304-1.39124-8.1087z"/></g></svg>