<svg fill="none" height="24" viewBox="0 0 24 24" width="24" xmlns="http://www.w3.org/2000/svg"><path d="m22 12c0 5.5228-4.4772 10-10 10-5.52285 0-10-4.4772-10-10 0-5.52285 4.47715-10 10-10 5.5228 0 10 4.47715 10 10z" stroke="#2a353d" stroke-width="1.5"/><path d="m14 10.1278c0 .4142.3358.75.75.75s.75-.3358.75-.75zm-4.25 3.7448c0-.4142-.33579-.75-.75-.75s-.75.3358-.75.75zm3-6.8726c0-.41421-.3358-.75-.75-.75s-.75.33579-.75.75zm-1.5 10c0 .4142.3358.75.75.75s.75-.3358.75-.75zm.75-5.8938c-.9522 0-1.4569-.1519-1.7078-.3198-.1866-.1249-.2922-.2955-.2922-.6586h-1.5c0 .7505.26936 1.4442.95777 1.905.62413.4179 1.49443.5734 2.54223.5734zm-2-.9784c0-.26048.1424-.55961.4989-.82104.3561-.2611.8844-.44543 1.5011-.44543v-1.5c-.9021 0-1.7488.26707-2.38804.73578-.63877.46838-1.11196 1.17749-1.11196 2.03069zm2-1.26647c.6167 0 1.145.18433 1.501.44543.3566.26143.499.56056.499.82104h1.5c0-.85321-.4732-1.56231-1.112-2.03069-.6392-.46871-1.4859-.73578-2.388-.73578zm2.25 5.01127c0 .4358-.1789.7049-.5131.9044-.3797.2267-.9761.3621-1.7369.3621v1.5c.896 0 1.7997-.1526 2.5057-.5741.7516-.4487 1.2443-1.1878 1.2443-2.1924zm-2.25 1.2665c-.6998 0-1.2996-.192-1.7029-.4631-.40803-.2742-.5471-.5724-.5471-.8034h-1.5c0 .8828.53251 1.5928 1.21029 2.0484.68251.4587 1.58261.7181 2.53971.7181zm0-2.5329c.9582 0 1.5279.1439 1.8421.3475.2459.1594.4079.4003.4079.9189h1.5c0-.9216-.338-1.6889-1.0921-2.1777-.6858-.4445-1.6161-.5887-2.6579-.5887zm.75-4.49487v-1.11133h-1.5v1.11133zm-1.5 7.77777v1.1109h1.5v-1.1109z" fill="#2a353d"/></svg>