<svg fill="none" height="24" viewBox="0 0 24 24" width="24" xmlns="http://www.w3.org/2000/svg"><circle cx="12" cy="12" r="10" stroke="#2a353d" stroke-width="1.5"/><path d="m9 15.25c-.41421 0-.75.3358-.75.75s.33579.75.75.75zm6 1.5c.4142 0 .75-.3358.75-.75s-.3358-.75-.75-.75zm-.4433-5.1191c.2776-.3075.2533-.7817-.0542-1.0593-.3075-.2775-.7817-.2532-1.0592.0543zm-1.496.5382.5567.5025zm-2.1214 0-.5567.5025zm-.3826-1.5432c-.2775-.3075-.75174-.3318-1.05923-.0543-.30748.2776-.33175.7518-.05422 1.0593zm2.1933-3.6259c0-.41421-.3358-.75-.75-.75s-.75.33579-.75.75zm-3.75 9.75h6v-1.5h-6zm4.4433-6.1241-.9394 1.0407 1.1135 1.005.9393-1.0407zm-1.9472 1.0407-.9394-1.0407-1.11345 1.005.93935 1.0407zm1.0078 0c-.2646.2931-.4129.4549-.5287.5529-.1025.0866-.0745.0305.0248.0305v1.5c.41 0 .7183-.1946.9435-.3849.2118-.1791.4385-.4327.6739-.6935zm-2.1213 1.005c.2354.2608.4621.5144.6739.6935.2252.1903.5335.3849.9435.3849v-1.5c.0993 0 .1273.0561.0248-.0305-.1158-.098-.2641-.2598-.5287-.5529zm2.3674.3284v-6h-1.5v6z" fill="#2a353d"/></svg>