<svg fill="none" height="24" viewBox="0 0 24 24" width="24" xmlns="http://www.w3.org/2000/svg"><path d="m16 8c-.2438.73137-.7454 1.29277-1.4554 1.60753-2.2804 1.01097-3.9261 2.65667-4.93707 4.93707-.31476.71-.87616 1.2116-1.60753 1.4554" stroke="#2a353d" stroke-linejoin="round" stroke-width="1.5"/><path d="m3.2 20.8-1.2 1.2m18.8-18.8 1.2-1.2" stroke="#2a353d" stroke-linecap="round" stroke-linejoin="round" stroke-width="1.5"/><path d="m6.19245 13.9359.53033-.5304zm3.87165 3.8717-.53028.5303zm-2.32297 2.323.53033-.5304zm1.58058.6245.28701.6929zm-.83814 0-.28702.6929zm2.20513-2.2051.6929-.287zm0 .8381.6929.287zm-6.07684-6.0768-.28701-.6929zm.83814 0 .28702-.6929zm-2.20513 1.367-.69291-.287zm0 .8381-.69291.287zm3.72192 5.3885.53033.5303zm-3.09737 0-.53033.5303zm-.77434-.7743.53033-.5304zm2.32302 1.8694v-.75zm8.5178-15.80755-.5304.53033zm3.8717 3.87165.5303-.53028zm2.323-2.32297-.5304.53033zm.6245 1.58058.6929.28701zm0-.83814.6929-.28702zm-2.2051 2.20513-.287.6929zm.8381 0 .287.6929zm-6.0768-6.07684-.6929-.28701zm0 .83814-.6929.28702zm1.367-2.20513-.287-.69291zm.8381 0 .287-.69291zm5.3885 3.72192.5303.53033zm0-3.09737.5303-.53033zm-.7743-.77434-.5304.53033zm1.8694 2.32302h-.75zm-16.33788 9.0481 3.8717 3.8717 1.06068-1.0607-3.87172-3.8717zm2.60934 5.134-3.87171-3.8717-1.06066 1.0607 3.87171 3.8717zm1.26236 0c-.18766.1877-.30213.3016-.39373.3815-.08651.0755-.11139.083-.1054.0805l.57403 1.3858c.20724-.0858.37318-.2101.51738-.3359.1391-.1213.2952-.2781.4684-.4512zm-2.32302 1.0607c.17314.1731.32927.3299.46838.4512.1442.1258.31013.2501.51737.3359l.57403-1.3858c.006.0025-.01889-.005-.1054-.0805-.0916-.0799-.20607-.1938-.39372-.3815zm1.82389-.5987c-.08455.035-.17956.035-.26411 0l-.57403 1.3858c.4521.1873.96007.1873 1.41217 0zm.49913-1.7243c.18765.1876.30155.3021.38145.3937.07545.0865.08301.1114.08052.1054l1.38581-.574c-.0858-.2073-.2102-.3732-.3359-.5174-.1214-.1391-.2781-.2952-.4512-.4684zm1.06068 2.323c.1731-.1731.3298-.3293.4512-.4684.1257-.1442.2501-.3101.3359-.5174l-1.38581-.574c.00249-.006-.00506.0189-.08052.1054-.0799.0916-.1938.2061-.38145.3937zm-.59871-1.8239c.03501.0846.03501.1796 0 .2641l1.38581.574c.1873-.452.1873-.96 0-1.4121zm-5.59604-4.3708c.18766-.1877.30213-.3016.39373-.3815.08651-.0754.11139-.083.1054-.0805l-.57403-1.3858c-.20724.0858-.37318.2102-.51737.3359-.13911.1214-.29524.2781-.46839.4512zm2.32303-1.0607c-.17315-.1731-.32928-.3298-.46839-.4512-.1442-.1257-.31013-.2501-.51737-.3359l-.57403 1.3858c-.00599-.0025.01889.0051.1054.0805.0916.0799.20607.1938.39373.3815zm-1.8239.5987c.08455-.035.17956-.035.26411 0l.57403-1.3858c-.4521-.1873-.96007-.1873-1.41217 0zm-1.55979-.5987c-.17314.1732-.32984.3293-.45118.4684-.12578.1442-.25011.3101-.33595.5174l1.38582.574c-.00248.006.00507-.0189.08053-.1054.07989-.0916.19379-.2061.38144-.3937zm1.06066 2.323c-.18765-.1876-.30155-.3021-.38144-.3937-.07546-.0865-.08301-.1114-.08053-.1054l-1.38582.574c.08584.2073.21017.3732.33595.5174.12134.1391.27804.2953.45118.4684zm-1.84779-1.3372c-.18727.4521-.18727.96 0 1.4121l1.38582-.574c-.03503-.0845-.03503-.1795 0-.2641zm1.07345 3.1722.77434-.7743-1.06066-1.0607-.77434.7744zm3.58539 2.0367-.77434.7744 1.06066 1.0606.77434-.7743zm-2.81105.7744-.77434-.7744-1.06066 1.0607.77434.7743zm2.03671 0c-.38002.38-.61282.6105-.80262.7554-.08784.067-.14249.0963-.17373.1093-.02526.0106-.03532.0107-.04201.0107v1.5c.45672 0 .81968-.1941 1.12561-.4275.28862-.2202.60337-.5372.95341-.8873zm-3.09737 1.0606c.35004.3501.66479.6671.95341.8873.30593.2334.66889.4275 1.12561.4275l-.00001-1.5c-.00668 0-.01674-.0001-.042-.0107-.03124-.013-.08589-.0423-.17373-.1093-.18981-.1449-.4226-.3754-.80262-.7554zm-.77434-4.9323c-.35003.35-.66704.6648-.88725.9534-.23341.3059-.4275.6689-.4275 1.1256h1.5c0-.0067.00013-.0168.01066-.042.01303-.0313.04236-.0859.10938-.1737.14481-.1898.37535-.4226.75537-.8027zm1.06066 3.0973c-.38002-.38-.61056-.6128-.75537-.8026-.06702-.0878-.09635-.1425-.10938-.1737-.01053-.0253-.01066-.0353-.01066-.042h-1.5c0 .4567.19409.8197.4275 1.1256.22021.2886.53722.6034.88725.9534zm9.78009-12.87742 3.8717 3.87172 1.0607-1.06068-3.8717-3.8717zm7.2554.48802-3.8717-3.87171-1.0607 1.06066 3.8717 3.87171zm0 3.3837c.1731-.1732.3299-.3293.4512-.4684.1258-.1442.2501-.31014.3359-.51738l-1.3858-.57403c.0025-.00599-.005.01889-.0805.1054-.0799.0916-.1938.20607-.3815.39373zm-1.0607-2.32304c.1877.18765.3016.30212.3815.39372.0755.08651.083.1114.0805.1054l1.3858-.57403c-.0858-.20724-.2101-.37317-.3359-.51737-.1213-.13911-.2781-.29524-.4512-.46838zm1.8478 1.33726c.1873-.4521.1873-.96007 0-1.41217l-1.3858.57403c.035.08455.035.17956 0 .26411zm-4.1708.98578c.1732.1731.3293.3298.4684.4512.1442.1257.3101.2501.5174.3359l.574-1.38581c.006.00249-.0189-.00507-.1054-.08052-.0916-.0799-.2061-.1938-.3937-.38145zm2.323-1.06068c-.1876.18765-.3021.30155-.3937.38145-.0865.07546-.1114.08301-.1054.08052l.574 1.38581c.2073-.0858.3732-.2102.5174-.3359.1391-.1214.2953-.2781.4684-.4512zm-1.3372 1.84778c.4521.1873.9601.1873 1.4121 0l-.574-1.38581c-.0845.03501-.1795.03501-.2641 0zm-4.8575-8.04251c-.1731.17315-.3298.32928-.4512.46839-.1257.14419-.2501.31013-.3359.51737l1.3858.57403c-.0025.00599.0051-.01889.0805-.1054.0799-.0916.1938-.20607.3815-.39373zm1.0607 2.32303c-.1877-.18766-.3016-.30213-.3815-.39373-.0754-.08651-.083-.11139-.0805-.1054l-1.3858.57403c.0858.20724.2102.37317.3359.51737.1214.13911.2781.29524.4512.46839zm-1.8478-1.33727c-.1873.4521-.1873.96007 0 1.41217l1.3858-.57403c-.035-.08455-.035-.17956 0-.26411zm1.8478.0749c.1876-.18765.3021-.30155.3937-.38144.0865-.07546.1114-.08301.1054-.08053l-.574-1.38582c-.2073.08584-.3732.21017-.5174.33595-.1391.12134-.2952.27804-.4684.45118zm2.323-1.06066c-.1731-.17314-.3293-.32984-.4684-.45118-.1442-.12578-.3101-.25011-.5174-.33595l-.574 1.38582c-.006-.00248.0189.00507.1054.08053.0916.07989.2061.19379.3937.38144zm-1.8239.59869c.0846-.03503.1796-.03503.2641 0l.574-1.38582c-.4521-.18727-.96-.18727-1.4121 0zm1.5376-1.37303-.7744.77434 1.0607 1.06066.7743-.77434zm4.158 5.70671.7743-.77434-1.0606-1.06066-.7744.77434zm.7743-4.93237-.7743-.77434-1.0607 1.06066.7744.77434zm0 4.15803c.3501-.35004.6671-.66479.8873-.95341.2334-.30593.4275-.66889.4275-1.12561h-1.5c0 .00669-.0001.01675-.0107.04201-.013.03124-.0423.08589-.1093.17373-.1449.1898-.3754.4226-.7554.80262zm-1.0606-3.09737c.38.38002.6105.61281.7554.80262.067.08784.0963.14249.1093.17373.0106.02526.0107.03532.0107.042l1.5.00001c0-.45672-.1941-.81968-.4275-1.12561-.2202-.28862-.5372-.60337-.8873-.95341zm-2.8111-.77434c.3801-.38002.6129-.61056.8027-.75537.0878-.06702.1424-.09635.1737-.10938.0252-.01053.0353-.01066.042-.01066v-1.5c-.4567 0-.8197.19409-1.1256.4275-.2886.22021-.6034.53722-.9534.88725zm3.0974-1.06066c-.35-.35003-.6648-.66704-.9534-.88725-.3059-.23341-.6689-.4275-1.1256-.4275v1.5c.0067 0 .0167.00013.042.01066.0312.01303.0859.04236.1737.10938.1898.14481.4226.37535.8026.75537z" fill="#2a353d"/></svg>