<svg fill="none" height="24" viewBox="0 0 24 24" width="24" xmlns="http://www.w3.org/2000/svg"><path d="m8.85746 12.5061c-2.48845-1.8605-4.26182-3.90692-5.23012-5.0574-.29974-.35614-.39796-.61677-.45701-1.07587-.20222-1.572-.30332-2.358.15762-2.8654.46095-.5074 1.27609-.5074 2.90638-.5074h11.53137c1.6303 0 2.4454 0 2.9063.5074.461.5074.3599 1.2934.1577 2.86541-.0591.4591-.1573.71973-.4571 1.07586-.9696 1.15195-2.7465 3.202-5.24 5.0649-.2256.1685-.3743.4432-.4019.7478-.247 2.7306-.4748 4.2262-.6166 4.9828-.2288 1.2215-1.9609 1.9564-2.8881 2.6122-.5519.3903-1.2217-.0744-1.29322-.6786-.13635-1.1517-.39317-3.4914-.67351-6.9164-.02518-.3074-.17441-.5853-.40181-.7553z" stroke="#2a353d" stroke-linecap="round" stroke-linejoin="round" stroke-width="1.5"/></svg>