<svg fill="none" height="24" viewBox="0 0 24 24" width="24" xmlns="http://www.w3.org/2000/svg" xmlns:xlink="http://www.w3.org/1999/xlink"><clipPath id="a"><path d="m0 0h24v24h-24z"/></clipPath><g clip-path="url(#a)" stroke="#2a353d" stroke-width="1.5"><path d="m20.5137 12c0 4.6944-3.8056 8.5-8.5 8.5-4.69445 0-8.50003-3.8056-8.50003-8.5 0-4.69442 3.80558-8.5 8.50003-8.5 4.6944 0 8.5 3.80558 8.5 8.5z"/><g stroke-linecap="round" stroke-linejoin="round"><path d="m22.5 12h-2"/><path d="m3.5 12h-2"/><path d="m12 1.5v2"/><path d="m12 20.5v2"/></g><path d="m15 12c0 1.6569-1.3432 3-3 3-1.6569 0-3.00005-1.3431-3.00005-3s1.34315-3 3.00005-3c1.6568 0 3 1.3431 3 3z"/></g></svg>