<svg fill="none" height="24" viewBox="0 0 24 24" width="24" xmlns="http://www.w3.org/2000/svg"><path d="m11.1002 3c-3.64963.00657-5.56078.09617-6.78214 1.31754-1.31806 1.31805-1.31806 3.43944-1.31806 7.68216 0 4.2428 0 6.3642 1.31806 7.6822 1.31805 1.3181 3.43944 1.3181 7.68224 1.3181 4.2427 0 6.3641 0 7.6822-1.3181 1.2213-1.2213 1.3109-3.1325 1.3175-6.7821" stroke="#2a353d" stroke-linecap="round" stroke-linejoin="round" stroke-width="1.5"/><path d="m21.0713 4.0315c.2936-.29224.2946-.76711.0024-1.06065-.2923-.29355-.7671-.2946-1.0607-.00235zm-10.6005 8.437c-.2935.2922-.2945.7671-.0023 1.0607.2922.2935.7671.2945 1.0607.0023zm9.5577-9.24144-.1308.73851zm-4.0286-.97706c-.4142.00004-.7499.33585-.7499.75007.0001.41421.3359.74997.7501.74993zm4.2501 5.75c0 .41421.3358.75.75.75s.75-.33579.75-.75zm.523-4.02825.7385-.13066zm-.76-1.00325-9.5422 9.5 1.0584 1.063 9.5421-9.5zm.1463-.47995c-.7009-.12412-1.7577-.18159-2.6012-.20984-.4299-.01439-.8185-.02156-1.0996-.02514-.1406-.00178-.2547-.00268-.3338-.00312-.0396-.00023-.0704-.00034-.0916-.00039-.0105-.00003-.0187-.00005-.0242-.00005-.0028-.00001-.005-.00001-.0065-.00001-.0007 0-.0013 0-.0017 0-.0002 0-.0004 0-.0005 0s-.0001 0-.0002 0c0 0-.0001 0 0 .75s.0001.75.0001.75h.0002.0013c.0011 0 .003 0 .0054.00001.0049 0 .0123.00001.0222.00004.0197.00005.049.00016.087.00037.076.00043.1865.00129.3232.00303.2737.00349.6516.01046 1.0685.02442.8498.02846 1.8072.08452 2.3898.1877zm.8407 5.51145c.75 0 .75-.00004.75-.00009 0-.00003 0-.00009 0-.00016 0-.00012 0-.00029 0-.00049 0-.00042 0-.001 0-.00174 0-.00149 0-.00364 0-.00643 0-.00557 0-.0137 0-.02426-.0001-.02113-.0002-.052-.0004-.09157-.0005-.07912-.0014-.19313-.0032-.33378-.0036-.28108-.0108-.66966-.0252-1.09945-.0283-.84346-.0857-1.90017-.2097-2.60094l-1.4771.26131c.1031.58266.1592 1.54007.1877 2.38989.0139.41684.0209.79468.0244 1.06837.0018.13673.0026.24718.0031.32318.0002.03799.0003.06735.0004.08706v.02218.00542.00124.00026.00003c0-.00001 0-.00003.75-.00003zm-1.1023-4.03443c.0505.00894.078.02785.0934.0433s.0344.04295.0433.09353l1.4771-.26131c-.1241-.70137-.6506-1.22829-1.3522-1.35254z" fill="#2a353d"/></svg>