<svg fill="none" height="24" viewBox="0 0 24 24" width="24" xmlns="http://www.w3.org/2000/svg"><g stroke="#2a353d" stroke-linecap="round" stroke-width="1.5"><path d="m15 17.625c-.0736 1.8519-1.6169 3.4244-3.6844 3.3738-.481-.0117-1.0755-.1794-2.26448-.5148-2.86151-.8071-5.34557-2.1636-5.94156-5.2024-.10956-.5586-.10956-1.1872-.10956-2.4443v-1.6746c0-1.25709 0-1.88566.10956-2.44425.59599-3.03882 3.08005-4.39531 5.94156-5.20245 1.18898-.33538 1.78348-.50307 2.26448-.51484 2.0675-.05058 3.6108 1.52189 3.6844 3.37383"/><path d="m10 12h11m-11 0c0-.7002 1.9943-2.00847 2.5-2.5m-2.5 2.5c0 .7002 1.9943 2.0085 2.5 2.5" stroke-linejoin="round"/></g></svg>