<svg fill="none" height="24" viewBox="0 0 24 24" width="24" xmlns="http://www.w3.org/2000/svg"><g stroke="#2a353d" stroke-linecap="round" stroke-width="1.5"><path d="m15 17.625c-.0736 1.8519-1.6169 3.4244-3.6844 3.3738-.481-.0118-1.0755-.1794-2.26448-.5148-2.86151-.8072-5.34557-2.1637-5.94156-5.2025-.10956-.5585-.10956-1.1871-.10956-2.4442v-1.6746c0-1.25709 0-1.88565.10956-2.44424.59599-3.03881 3.08005-4.3953 5.94156-5.20243 1.18898-.33539 1.78348-.50308 2.26448-.51484 2.0675-.05058 3.6108 1.52188 3.6844 3.37382"/><path d="m21 12h-11m11 0c0-.7002-1.9943-2.00847-2.5-2.5m2.5 2.5c0 .7002-1.9943 2.0085-2.5 2.5" stroke-linejoin="round"/></g></svg>