<svg fill="none" height="24" viewBox="0 0 24 24" width="24" xmlns="http://www.w3.org/2000/svg"><g stroke="#2a353d" stroke-linecap="round" stroke-linejoin="round" stroke-width="1.5"><path d="m5.25345 4.19584-1.22787.71229c-.98819.57324-1.48229.85987-1.75394 1.3367-.27164.47682-.27164 1.0575-.27164 2.21885v8.16462c0 1.5259 0 2.2889.34226 2.7135.22775.2826.5469.4725.89974.5355.53026.0946 1.17948-.282 2.47787-1.0352.88169-.5115 1.73024-1.0427 2.785-.8986.47979.0655.93744.2931 1.85273.7482l3.8139 1.8963c.8249.4102.8325.412 1.7499.412h2.0786c1.8856 0 2.8284 0 3.4142-.5987s.5858-1.5624.5858-3.4896v-6.7402c0-1.92727 0-2.8909-.5858-3.48962s-1.5286-.59872-3.4142-.59872h-2.0786c-.9174 0-.925-.00177-1.7499-.41196l-3.3316-1.65657c-1.39106-.69166-2.08658-1.03749-2.82752-1.01346-.74095.02404-1.41361.41425-2.75893 1.19467z"/><path d="m8 3v14.5"/><path d="m15 6.5v14"/></g></svg>