<svg fill="none" height="24" viewBox="0 0 24 24" width="24" xmlns="http://www.w3.org/2000/svg"><g stroke="#2a353d" stroke-linecap="round" stroke-width="1.5"><path d="m17 2v2m-5-2v2m-5-2v2" stroke-linejoin="round"/><path d="m3.5 10c0-3.29983 0-4.94975 1.02513-5.97487 1.02512-1.02513 2.67504-1.02513 5.97487-1.02513h3c3.2998 0 4.9497 0 5.9749 1.02513 1.0251 1.02512 1.0251 2.67504 1.0251 5.97487v5c0 3.2998 0 4.9497-1.0251 5.9749-1.0252 1.0251-2.6751 1.0251-5.9749 1.0251h-3c-3.29983 0-4.94975 0-5.97487-1.0251-1.02513-1.0252-1.02513-2.6751-1.02513-5.9749z" stroke-linejoin="round"/><path d="m8 15h4m-4-5h8"/></g></svg>