<svg fill="none" height="24" viewBox="0 0 24 24" width="24" xmlns="http://www.w3.org/2000/svg"><g stroke="#2a353d" stroke-linecap="round" stroke-linejoin="round" stroke-width="1.5"><path d="m3 21 5-5"/><path d="m13.2585 18.8714c-3.74334-.8499-7.28006-4.3866-8.12997-8.1299-.13454-.5926-.20181-.88884-.00692-1.36953.19489-.48068.43296-.62942.9091-.92688 1.07634-.67244 2.24183-.88621 3.45138-.77923 1.69721.15012 2.54581.22518 2.96911.00462.4234-.22057.711-.73631 1.2864-1.76779l.7288-1.30665c.4801-.86076.7202-1.29114 1.2849-1.49402.5647-.20289.9045-.08003 1.5842.16569 1.5894.57465 2.8221 1.80734 3.3968 3.39678.2457.67968.3686 1.01952.1657 1.58421-.2029.5647-.6333.80476-1.4941 1.28488l-1.3367.74562c-1.0296.5742-1.5443.8614-1.7648 1.2888-.2205.4275-.1404 1.2576.0197 2.9179.1178 1.2209-.0852 2.3941-.7666 3.4838-.2978.4761-.4467.7142-.9272.9089-.4806.1947-.777.1274-1.3698-.0072z"/></g></svg>