<svg fill="none" height="24" viewBox="0 0 24 24" width="24" xmlns="http://www.w3.org/2000/svg"><g stroke="#2a353d"><g stroke-width="1.5"><path d="m7.35396 18c-2.12312 0-3.18468 0-3.94047-.4532-.49396-.2962-.89191-.7197-1.14874-1.2226-.39296-.7695-.28733-1.7869-.07607-3.8217.17635-1.6986.26453-2.54795.69816-3.17169.28469-.40952.66975-.74517 1.12113-.97728.68751-.35353 1.57367-.35353 3.34599-.35353h9.29204c1.7724 0 2.6585 0 3.346.35353.4514.23211.8365.56776 1.1212.97728.4336.62374.5218 1.47309.6981 3.17169.2113 2.0348.3169 3.0522-.0761 3.8217-.2568.5029-.6547.9264-1.1487 1.2226-.7558.4532-1.8173.4532-3.9405.4532"/><path d="m17 8v-2c0-1.88562 0-2.82843-.5858-3.41421-.5858-.58579-1.5286-.58579-3.4142-.58579h-2c-1.88562 0-2.82843 0-3.41421.58579-.58579.58578-.58579 1.52859-.58579 3.41421v2" stroke-linejoin="round"/><path d="m13.9887 16h-3.9774c-.68528 0-1.02793 0-1.31947.1089-.38872.1451-.72157.4271-.94563.801-.16805.2805-.25115.6412-.41736 1.3625-.25971 1.1271-.38956 1.6906-.30125 2.1425.11776.6025.48478 1.1125.99493 1.3825.38261.2026.918.2026 1.98878.2026h3.9774c1.0708 0 1.6062 0 1.9888-.2026.5101-.27.8772-.78.9949-1.3825.0883-.4519-.0415-1.0154-.3012-2.1425-.1662-.7213-.2494-1.082-.4174-1.3625-.2241-.3739-.5569-.6559-.9456-.801-.2916-.1089-.6342-.1089-1.3195-.1089z" stroke-linejoin="round"/></g><path d="m18 12h.009" stroke-linecap="round" stroke-linejoin="round" stroke-width="2"/></g></svg>