<svg fill="none" height="24" viewBox="0 0 24 24" width="24" xmlns="http://www.w3.org/2000/svg"><g stroke="#2a353d" stroke-linecap="round" stroke-linejoin="round" stroke-width="1.5"><path d="m20.3927 8.03168-1.747-1.51707c-1.2586-1.09308-1.752-1.68109-2.4336-1.47322-.8499.2592-.5701 1.8947-.5701 2.44685-1.3214 0-2.6952-.10163-3.9977.11012-4.29977.69906-5.6443 3.75824-5.6443 7.05414 1.21697-.746 2.43274-1.5779 3.8954-1.9236 1.8258-.4316 3.8649-.2257 5.7466-.2257 0 .5522-.2798 2.1877.5701 2.4469.7723.2355 1.175-.3802 2.4336-1.4732l1.747-1.5171c1.0715-.9305 1.6073-1.3958 1.6073-1.96406 0-.56824-.5358-1.03351-1.6073-1.96406z"/><path d="m10.5676 3c-3.86025.00694-5.88166.10152-7.17349 1.39073-1.39411 1.39129-1.39411 3.63052-1.39411 8.10897 0 4.4785 0 6.7177 1.3941 8.109 1.39411 1.3913 3.63788 1.3913 8.1254 1.3913 4.4876 0 6.7314 0 8.1255-1.3913.9706-.9687 1.2654-2.3484 1.355-4.6087"/></g></svg>