<svg fill="none" height="24" viewBox="0 0 24 24" width="24" xmlns="http://www.w3.org/2000/svg"><g stroke="#2a353d" stroke-width="1.5"><path d="m3.06164 15.1933.36524-2.0714c.43168-2.4483.64752-3.67238 1.50226-4.39714.85475-.72476 2.08257-.72476 4.5382-.72476h5.06536c2.4556 0 3.6834 0 4.5382.72476.8547.72476 1.0705 1.94884 1.5022 4.39714l.3653 2.0714c.5973 3.3878.896 5.0817-.0237 6.1942s-2.6188 1.1125-6.0168 1.1125h-5.7958c-3.39804 0-5.09706 0-6.01677-1.1125s-.62103-2.8064-.02369-6.1942z"/><path d="m7.5 8 .16782-2.01382c.18776-2.25312 2.07125-3.98618 4.33218-3.98618 2.2609 0 4.1444 1.73306 4.3322 3.98618l.1678 2.01382"/><path d="m15 11c-.13 1.4131-1.4343 2.5-3 2.5s-2.86998-1.0869-3-2.5" stroke-linecap="round"/></g></svg>