<svg fill="none" height="24" viewBox="0 0 24 24" width="24" xmlns="http://www.w3.org/2000/svg"><g stroke="#2a353d" stroke-width="1.5"><path d="m5 9c0-3.29983 0-4.94975 1.02513-5.97487 1.02512-1.02513 2.67504-1.02513 5.97487-1.02513 3.2998 0 4.9497 0 5.9749 1.02513 1.0251 1.02512 1.0251 2.67504 1.0251 5.97487v6c0 3.2998 0 4.9497-1.0251 5.9749-1.0252 1.0251-2.6751 1.0251-5.9749 1.0251-3.29983 0-4.94975 0-5.97487-1.0251-1.02513-1.0252-1.02513-2.6751-1.02513-5.9749z" stroke-linecap="round"/><g stroke-linejoin="round"><path d="m11 19h2" stroke-linecap="round"/><path d="m9 2 .089.53402c.19288 1.15727.28932 1.73591.68619 2.08802.41401.3673 1.00091.37796 2.22481.37796s1.8108-.01066 2.2248-.37796c.3969-.35211.4933-.93075.6862-2.08802l.089-.53402"/></g></g></svg>