<svg fill="none" height="24" viewBox="0 0 24 24" width="24" xmlns="http://www.w3.org/2000/svg"><g stroke="#2a353d"><path d="m4.26781 18.8447c.22488 1.6703 1.60832 2.9788 3.29185 3.0562 1.41661.0651 2.85564.0991 4.44034.0991s3.0237-.034 4.4403-.0991c1.6836-.0774 3.067-1.3859 3.2919-3.0562.1468-1.09.2678-2.2071.2678-3.3447s-.121-2.2547-.2678-3.3447c-.2249-1.6703-1.6083-2.97881-3.2919-3.05621-1.4166-.06512-2.8556-.09909-4.4403-.09909s-3.02373.03397-4.44034.09909c-1.68353.0774-3.06697 1.38591-3.29185 3.05621-.14677 1.09-.26781 2.2071-.26781 3.3447s.12104 2.2547.26781 3.3447z" stroke-width="1.5"/><g stroke-linecap="round" stroke-linejoin="round"><path d="m7.5 9v-2.5c0-2.48528 2.01472-4.5 4.5-4.5 1.9593 0 3.5 1.5 4 3" stroke-width="1.5"/><path d="m11.9961 15.5h.009" stroke-width="2"/></g></g></svg>