<svg fill="none" height="24" viewBox="0 0 24 24" width="24" xmlns="http://www.w3.org/2000/svg"><g stroke="#2a353d" stroke-linejoin="round" stroke-width="1.5"><g stroke-linecap="round"><path d="m2.5 13 2 1"/><path d="m21.5 13.5-2 .5"/><path d="m8 18.5.24567-.6142c.36534-.9133.54801-1.37.92894-1.6279.38092-.2579.87279-.2579 1.85649-.2579h1.9378c.9837 0 1.4756 0 1.8565.2579s.5636.7146.9289 1.6279l.2457.6142"/><path d="m2 18v2.882c0 .3787.24075.725.62188.8944.2473.1099.4835.2236.7687.2236h1.71884c.2852 0 .5214-.1137.7687-.2236.38113-.1694.62188-.5157.62188-.8944v-1.882"/><path d="m17.5 19v1.882c0 .3787.2408.725.6219.8944.2473.1099.4835.2236.7687.2236h1.7188c.2852 0 .5214-.1137.7687-.2236.3811-.1694.6219-.5157.6219-.8944v-2.882"/><path d="m20 9.5 1-.5"/><path d="m4 9.5-1-.5"/></g><path d="m4.5 10.5 1.0883-3.26491c.44002-1.32004.66002-1.98006 1.1838-2.35757.52377-.37752 1.21949-.37752 2.61094-.37752h5.23396c1.3914 0 2.0871 0 2.6109.37752.5238.37751.7438 1.03753 1.1838 2.35757l1.0883 3.26491"/><path d="m15.5 4.5c-.2402-1.20657-.3603-1.80987-.6462-2.15493-.2859-.34507-.6657-.34507-1.4253-.34507h-2.857c-.7596 0-1.13938 0-1.42529.34507-.28592.34506-.40602.94835-.64621 2.15493"/><path d="m4.5 10.5h15c.9572.9572 2.5 2.2902 2.5 3.7774v3.2778c0 .5388-.3795.9922-.8832 1.0552l-3.1168.3896h-12l-3.11684-.3896c-.50361-.063-.88316-.5164-.88316-1.0552v-3.2778c0-1.4872 1.54279-2.8202 2.5-3.7774z"/></g></svg>