<svg fill="none" height="24" viewBox="0 0 24 24" width="24" xmlns="http://www.w3.org/2000/svg"><g stroke="#2a353d" stroke-linecap="round" stroke-linejoin="round" stroke-width="1.5"><path d="m2 11.5c0 1.1046.89543 2 2 2 1.65685 0 3-1.3431 3-3v-4c0-1.65685-1.34315-3-3-3-1.10457 0-2 .89543-2 2z"/><path d="m15.4787 16.1937-.2663-.86c-.2182-.7048-.3273-1.0572-.2434-1.3355.0679-.2251.2169-.4192.42-.5469.251-.1578.6307-.1578 1.3901-.1578h.404c2.5701 0 3.8551 0 4.4621-.7608.0693-.0869.131-.1794.1844-.2764.4669-.8484-.0639-1.9914-1.1256-4.2774-.9743-2.09779-1.4615-3.14668-2.366-3.76405-.0875-.05977-.1775-.11615-.2697-.16899-.9523-.54586-2.1321-.54586-4.4919-.54586h-.5118c-2.8589 0-4.28832 0-5.17646.86053s-.88814 2.24554-.88814 5.01554v.97363c0 1.4557 0 2.1835.25834 2.8497s.75301 1.214 1.74235 2.3095l4.09141 4.5305c.1026.1137.1539.1705.1992.2099.4222.3674 1.0739.3261 1.4431-.0916.0396-.0448.0828-.1076.1692-.2332.1352-.1965.2028-.2948.2618-.3922.5274-.8714.687-1.9067.4454-2.8894-.027-.1098-.062-.223-.1321-.4492z"/></g></svg>