<svg fill="none" height="24" viewBox="0 0 24 24" width="24" xmlns="http://www.w3.org/2000/svg"><g stroke="#2a353d" stroke-width="1.5"><path d="m4 11v-1c0-3.77124 0-5.65685 1.17157-6.82843 1.17158-1.17157 3.05719-1.17157 6.82843-1.17157 3.7712 0 5.6569 0 6.8284 1.17157 1.1716 1.17158 1.1716 3.05719 1.1716 6.82843v1c0 3.7712 0 5.6569-1.1716 6.8284-1.1715 1.1716-3.0572 1.1716-6.8284 1.1716-3.77124 0-5.65685 0-6.82843-1.1716-1.17157-1.1715-1.17157-3.0572-1.17157-6.8284z" stroke-linejoin="round"/><path d="m4 12s3.73333 1 8 1c4.2667 0 8-1 8-1" stroke-linejoin="round"/><g stroke-linecap="round"><path d="m7 19-2 3" stroke-linejoin="round"/><path d="m17 19 2 3" stroke-linejoin="round"/><path d="m4.5 16h2"/><path d="m17.5 16h2"/><path d="m5 5h14"/></g></g></svg>