<svg fill="none" height="24" viewBox="0 0 24 24" width="24" xmlns="http://www.w3.org/2000/svg"><g stroke="#2a353d" stroke-width="1.5"><circle cx="17" cy="18" r="2"/><circle cx="7" cy="18" r="2"/><g stroke-linecap="round" stroke-linejoin="round"><path d="m5 17.9724c-1.09672-.0546-1.7809-.2178-2.26777-.7046-.48687-.4869-.65001-1.1711-.70468-2.2678m6.97245 3h6m4-.0276c1.0967-.0546 1.7809-.2178 2.2678-.7046.7322-.7323.7322-1.9108.7322-4.2678v-2h-4.7c-.7445 0-1.1168 0-1.418-.0979-.6089-.1978-1.0863-.6752-1.2841-1.28407-.0979-.30126-.0979-.67352-.0979-1.41803 0-1.11677 0-1.67515-.1468-2.12705-.2968-.91331-1.0128-1.62937-1.9261-1.92612-.4519-.14683-1.0103-.14683-2.1271-.14683h-8.3"/><path d="m2 8h6"/><path d="m2 11h4"/><path d="m14.5 6h1.8212c1.4554 0 2.183 0 2.7752.35371s.9372.9944 1.6272 2.27579l1.2764 2.3705"/></g></g></svg>