<svg fill="none" height="24" viewBox="0 0 24 24" width="24" xmlns="http://www.w3.org/2000/svg"><g stroke="#2a353d" stroke-linecap="round" stroke-width="1.5"><path d="m12.1434 10.691.2069-.2069c1.9787-1.97878 5.1869-1.97878 7.1656 0 1.9788 1.9787 1.9788 5.1869 0 7.1656l-2.8662 2.8662c-1.9787 1.9788-5.1869 1.9788-7.16565 0-1.97873-1.9787-1.97873-5.1869 0-7.1656l.46435-.4643"/><path d="m20.0516 11.114.4643-.4643c1.9788-1.97875 1.9788-5.18691 0-7.16565-1.9787-1.97873-5.1869-1.97873-7.1656 0l-2.8662 2.86626c-1.97878 1.97873-1.97878 5.18689 0 7.16559 1.9787 1.9788 5.1869 1.9788 7.1656 0l.2069-.2069"/><path d="m4.5 4 1.5 2m-4 2 3 1m-2 4.5 2-1.5" stroke-linejoin="round"/></g></svg>