<svg fill="none" height="24" viewBox="0 0 24 24" width="24" xmlns="http://www.w3.org/2000/svg"><g stroke="#2a353d" stroke-linecap="round" stroke-linejoin="round" stroke-width="1.5"><path d="m3 21 5-5"/><path d="m16 15.9668c-.1127.6076-.3346 1.1975-.6891 1.7641-.2908.4651-.4363.6976-.9057.8877-.4694.1902-.759.1245-1.3381-.007-3.65654-.8301-7.11133-4.2843-7.94155-7.9402-.13142-.5787-.19713-.8681-.00676-1.33757s.42293-.61473.88804-.90526c.56458-.35266 1.15427-.57615 1.76225-.69133"/><path d="m3 3 18 18"/></g><path d="m13.6969 5.84812.6554.36464zm.7133-1.28209-.6554-.36463zm3.5241 5.57637.366.6546zm1.3083-.73164-.3661-.65461zm-2.0244-6.14808.2555-.70511zm3.3245 3.33292.7055-.25443zm.1621 1.55443-.706-.25302zm-5.0371-5.04993-.2542-.70562zm.5394 8.3069-.6669-.3432zm-3.7692-3.82432.3472.66477zm-.6671-.61798c-.4137.01869-.734.36928-.7153.78308.0186.41379.3692.73408.783.71539zm3.5601 4.9966c-.0214.4136.2966.7663.7103.7877.4136.0214.7663-.2966.7877-.7103zm-.9786-5.74854.7133-1.28209-1.3108-.72927-.7133 1.28208zm3.948 4.58424 1.3083-.7316-.7321-1.30925-1.3083.7316zm-1.3377-6.82921c1.3456.48774 2.3875 1.53181 2.8745 2.88225l1.4111-.50887c-.6379-1.76869-2.0089-3.14366-3.7745-3.7836zm2.646 6.09761c.7701-.43066 1.4907-.79291 1.8023-1.66235l-1.4121-.50604c-.0855.23873-.2074.34757-1.1223.85914zm.2285-3.21536c.1285.35629.1876.52931.2096.67606.0155.10399.013.20093-.0479.37091l1.4121.50604c.1376-.38409.1743-.73092.1192-1.0989-.0486-.32522-.1699-.65237-.2819-.96298zm-4.7715-1.91937c.5106-.91771.6192-1.03957.8563-1.12495l-.5084-1.41124c-.8683.31275-1.2295 1.03548-1.6587 1.80692zm2.4081-2.3731c-.3096-.11223-.6364-.23404-.9615-.28291-.368-.05534-.7149-.01842-1.0987.11982l.5084 1.41124c.1688-.06084.2646-.06317.3673-.04773.1458.02191.3178.08093.6734.2098zm.0945 6.93018c-.4907.2744-.9061.50577-1.2217.72445-.3222.2234-.617.4837-.8063.8516l1.3338.6863c.0265-.0515.0915-.1418.327-.305.2422-.1679.5824-.3591 1.0993-.6481zm-4.5267-4.00427c-.2888.51898-.4802.8615-.6479 1.10539-.1637.2381-.2536.30326-.3029.32903l.6944 1.32955c.365-.19064.6231-.48671.8445-.80876.2175-.31626.4483-.73281.7227-1.22593zm-1.203 2.97969c.3169-.01431.6517-.06168.9466-.21572l-.6944-1.32955c.0017-.00088-.017.00914-.0716.02032-.055.01127-.1346.02135-.2483.02648zm4.9904 3.57553c.011-.2125.0414-.2814.0451-.2886l-1.3338-.6863c-.1453.2825-.1938.5974-.2093.8975z" fill="#2a353d"/></svg>