<svg fill="none" height="24" viewBox="0 0 24 24" width="24" xmlns="http://www.w3.org/2000/svg"><g stroke="#2a353d" stroke-width="1.5"><g stroke-linecap="round"><path d="m18.5045 19h.4412c1.0348 0 1.8579-.4716 2.597-1.1309 1.8775-1.6749-2.536-3.3693-4.0427-3.3693" stroke-linejoin="round"/><path d="m15 5.06877c.2271-.04504.4629-.06877.7048-.06877 1.8199 0 3.2952 1.34315 3.2952 3s-1.4753 3-3.2952 3c-.2419 0-.4777-.0237-.7048-.0688"/><path d="m4.78256 15.1112c-1.10038.6318-3.985499 1.9219-2.22827 3.5362.8584.7886 1.81443 1.3526 3.01639 1.3526h6.85862c1.202 0 2.158-.564 3.0164-1.3526 1.7572-1.6143-1.1279-2.9044-2.2283-3.5362-2.5803-1.4816-5.85448-1.4816-8.43484 0z" stroke-linejoin="round"/></g><path d="m13 7c0 2.20914-1.7909 4-4 4-2.20914 0-4-1.79086-4-4s1.79086-4 4-4c2.2091 0 4 1.79086 4 4z"/></g></svg>