<svg fill="none" height="24" viewBox="0 0 24 24" width="24" xmlns="http://www.w3.org/2000/svg"><g stroke="#2a353d" stroke-width="1.5"><circle cx="12" cy="12" r="7"/><path d="m16 6-.2724-1.08957c-.3345-1.33803-.5018-2.00704-.9777-2.42039-.0526-.04571-.1076-.08863-.1647-.12859-.5164-.36145-1.206-.36145-2.5852-.36145s-2.06881 0-2.58524.36145c-.05711.03996-.11208.08288-.1647.12859-.47591.41335-.64316 1.08236-.97767 2.42039l-.27239 1.08957"/><path d="m8 18 .27239 1.0896c.33451 1.338.50176 2.007.97767 2.4204.05262.0457.10759.0886.1647.1286.51643.3614 1.20604.3614 2.58524.3614s2.0688 0 2.5852-.3614c.0571-.04.1121-.0829.1647-.1286.4759-.4134.6432-1.0824.9777-2.4204l.2724-1.0896"/><path d="m12 10v2.005l1 .995" stroke-linecap="round" stroke-linejoin="round"/></g></svg>