<svg fill="none" height="24" viewBox="0 0 24 24" width="24" xmlns="http://www.w3.org/2000/svg"><path d="m4.41712 11.9183 3.32147-2.02174c.55738-.33873.83608-.5081 1.02846-.7404.83257-1.00534.09939-2.49021.22354-3.6593.12851-1.21015 1.28251-2.86528 2.44581-3.37841.358-.15793.7687-.15793 1.1267 0 1.1633.51313 2.3173 2.16826 2.4458 3.37841.1242 1.16909-.609 2.65396.2236 3.6593.1923.2323.471.40167 1.0284.7404l3.3218 2.02164c1.0166.6187 1.4171 1.2791 1.4171 2.5213 0 .6761-.2992.8573-.9025.7193l-5.8248-1.3327-.2616 2.2888c-.0948.8299-.1422 1.2449-.0051 1.6249.3212.8902 1.4115 1.6193 2.0774 2.2668.3681.3578.7697 1.3868.3501 1.8547-.2591.289-.68.0544-.9696-.0583l-2.7887-1.0846c-.3334-.1297-.5002-.1945-.6752-.1945-.1751 0-.3419.0648-.6753.1945l-2.78866 1.0846c-.28965.1127-.7105.3473-.96959.0583-.41965-.4679-.018-1.4969.35003-1.8547.66592-.6475 1.75627-1.3766 2.07742-2.2668.1371-.38.0897-.795-.00513-1.6249l-.26154-2.2888-5.82444 1.3326c-.60357.1381-.90277-.0432-.90258-.7196.00033-1.242.40069-1.9021 1.41711-2.5208z" stroke="#2a353d" stroke-linecap="round" stroke-linejoin="round" stroke-width="1.5"/></svg>