<svg fill="none" height="24" viewBox="0 0 24 24" width="24" xmlns="http://www.w3.org/2000/svg"><g stroke="#2a353d"><g stroke-width="1.5"><path d="m6 17.9745c.1287 1.3084.41956 2.1891 1.07691 2.8464 1.17905 1.1791 3.07669 1.1791 6.87199 1.1791s5.693 0 6.872-1.1791c1.1791-1.179 1.1791-3.0767 1.1791-6.872s0-5.69294-1.1791-6.87199c-.6573-.65735-1.538-.94821-2.8464-1.07691"/><path d="m2 10c0-3.77124 0-5.65685 1.17157-6.82843 1.17158-1.17157 3.05719-1.17157 6.82843-1.17157 3.7712 0 5.6569 0 6.8284 1.17157 1.1716 1.17158 1.1716 3.05719 1.1716 6.82843 0 3.7712 0 5.6569-1.1716 6.8284-1.1715 1.1716-3.0572 1.1716-6.8284 1.1716-3.77124 0-5.65685 0-6.82843-1.1716-1.17157-1.1715-1.17157-3.0572-1.17157-6.8284z"/><path d="m2 11.1185c.61902-.0787 1.24484-.1175 1.87171-.1162 2.65194-.049 5.23893.674 7.29939 2.0401 1.9109 1.267 3.2536 3.0106 3.8289 4.9576" stroke-linejoin="round"/></g><path d="m12.9998 7h.009" stroke-linecap="round" stroke-linejoin="round" stroke-width="2"/></g></svg>