<svg fill="none" height="24" viewBox="0 0 24 24" width="24" xmlns="http://www.w3.org/2000/svg"><g stroke="#2a353d" stroke-width="1.5"><path d="m7 18v-2" stroke-linecap="round"/><path d="m12 18v-3" stroke-linecap="round"/><path d="m17 18v-5" stroke-linecap="round"/></g><path d="m6 10.75c-.41421 0-.75.3358-.75.75s.33579.75.75.75zm10.6512-3.8779c.2055-.35963.0805-.81777-.2791-1.02328s-.8178-.08056-1.0233.27908zm-2.7733-1.31732c-.4087.06741-.6853.45337-.6179.86206s.4534.68535.8621.61794zm1.3897.5309-.122-.74zm1.4143.80385-.721.20656zm-.4029 1.31703c.1141.39819.5294.62851.9276.51443.3982-.11407.6285-.52935.5144-.92755zm-.0049-2.13502.3707-.65203h-.0001zm-10.2741 6.17846c4.6742 0 8.4764-1.572 10.6512-5.3779l-1.3024-.7442c-1.8252 3.19413-5.023 4.6221-9.3488 4.6221zm8.1221-5.21522 1.2676-.2091-.2441-1.48-1.2677.2091zm1.8388.06131.3181 1.11047 1.442-.41312-.3181-1.11047zm-.5712-.27041c.2845-.04694.4331-.07019.5376-.07496.0869-.00397.0446.0117-.0238-.02715l.7412-1.30406c-.2754-.15657-.5545-.17779-.7858-.16723-.2138.00975-.4649.05243-.7133.0934zm2.0132-.14271c-.0608-.21194-.1268-.44917-.2138-.64192-.1002-.22194-.2587-.45919-.5443-.62154l-.7413 1.30406c-.0303-.01722-.0577-.04109-.0772-.06477-.016-.01963-.016-.02634-.0044-.00062.0123.0271.0294.07215.054.14965.0245.0774.0507.16862.085.28826z" fill="#2a353d"/><path d="m2.5 12c0-4.47834 0-6.71751 1.39124-8.10876 1.39125-1.39124 3.63042-1.39124 8.10876-1.39124 4.4783 0 6.7175 0 8.1088 1.39124 1.3912 1.39125 1.3912 3.63042 1.3912 8.10876 0 4.4783 0 6.7175-1.3912 8.1088-1.3913 1.3912-3.6305 1.3912-8.1088 1.3912-4.47834 0-6.71751 0-8.10876-1.3912-1.39124-1.3913-1.39124-3.6305-1.39124-8.1088z" stroke="#2a353d" stroke-width="1.5"/></svg>