<svg fill="none" height="24" viewBox="0 0 24 24" width="24" xmlns="http://www.w3.org/2000/svg"><g stroke="#2a353d" stroke-width="1.5"><path d="m6.5 9.5c0-3.03757 2.46243-5.5 5.5-5.5 3.0376 0 5.5 2.46243 5.5 5.5v6.5c0 1.4142 0 2.1213-.4393 2.5607-.4394.4393-1.1465.4393-2.5607.4393h-5c-1.41421 0-2.12132 0-2.56066-.4393-.43934-.4394-.43934-1.1465-.43934-2.5607z"/><g stroke-linecap="round" stroke-linejoin="round"><path d="m20 11v6"/><path d="m15 19v3"/><path d="m9 19v3"/><path d="m4 11v6"/><path d="m10 4-1.5-2m5.5 2 1.5-2"/><path d="m6.5 10h11"/></g></g></svg>