<svg fill="none" height="24" viewBox="0 0 24 24" width="24" xmlns="http://www.w3.org/2000/svg"><g stroke="#2a353d" stroke-linecap="round" stroke-width="1.5"><path d="m12 12v6"/><path d="m12 18c-1.6736 0-3.13029 1.012-3.88234 2.505-.3592.713.15623 1.495.84111 1.495h6.08243c.6849 0 1.2003-.782.8411-1.495-.752-1.493-2.2087-2.505-3.8823-2.505z"/><path d="m5 5h-1.01529c-.98652 0-1.47978 0-1.78454.37053s-.21539.78544-.03665 1.61527c.34142 1.58506 1.08196 2.9776 2.08538 4.0142"/><path d="m19 5h1.0153c.9865 0 1.4798 0 1.7845.37053.3048.37053.2154.78544.0367 1.61527-.3414 1.58506-1.082 2.9776-2.0854 4.0142"/><path d="m12 12c3.866 0 7-3.1169 7-6.96179 0-.10082-.0022-.20114-.0064-.30092-.0428-.99923-.0641-1.49884-.7413-2.11807-.6772-.61922-1.4276-.61922-2.9283-.61922h-6.64804c-1.5007 0-2.25104 0-2.92824.61922-.67721.61922-.69857 1.11884-.7413 2.11807-.00427.09978-.00642.2001-.00642.30092 0 3.84489 3.13401 6.96179 7 6.96179z"/></g></svg>