<svg fill="none" height="24" viewBox="0 0 24 24" width="24" xmlns="http://www.w3.org/2000/svg"><g stroke="#2a353d" stroke-linecap="round" stroke-width="1.5"><path d="m8 6c-2.82843 0-4.24264 0-5.12132.87868s-.87868 2.29289-.87868 5.12132c0 2.8284 0 4.2426.87868 5.1213.5693.5693 1.36341.7698 2.62132.8403m6.5.0211 1 .0173c2.8284 0 4.2426 0 5.1213-.8787s.8787-2.2929.8787-5.1213c0-2.82843 0-4.24264-.8787-5.12132-.7073-.70731-1.7616-.84526-3.6213-.87216"/><path d="m11.5623 6-2.97061 4.4367c-.46003.687-.69005 1.0306-.5518 1.2969.13825.2664.54656.2664 1.36318.2664h1.19383c.8167 0 1.225 0 1.3632.2664.1383.2663-.0918.6099-.5518 1.2969l-2.97061 4.4367"/><path d="m19 9.5 1.0272.1712c.6813.11355 1.0219.17032 1.2804.3355.2542.1624.4536.3977.572.6752.1204.2821.1204.6274.1204 1.3181s0 1.036-.1204 1.3181c-.1184.2775-.3178.5128-.572.6752-.2585.1652-.5991.222-1.2804.3355l-1.0272.1712"/></g></svg>