<svg fill="none" height="24" viewBox="0 0 24 24" width="24" xmlns="http://www.w3.org/2000/svg"><g stroke="#2a353d" stroke-linecap="round" stroke-linejoin="round" stroke-width="1.5"><path d="m20 19.9429c-.0619 1.0332-.2383 1.6296-.741 1.9052-1.4998.822-4.313-1.9205-5.649-2.7462-.7748-.4789-1.1622-.7183-1.5933-.7183s-.8185.2394-1.5933.7183c-1.33599.8257-4.14919 3.5682-5.64894 2.7462-.77446-.4245-.77446-1.6104-.77446-3.9821v-8.50968c0-2.17577 0-3.71817.23168-4.85632"/><path d="m20 16v-6.29247c0-3.63337 0-5.45005-1.1716-6.57879-1.1715-1.12874-3.0572-1.12874-6.8284-1.12874-2.60353 0-4.30837 0-5.5.37139"/><path d="m2 2 20 20"/></g></svg>