<svg fill="none" height="24" viewBox="0 0 24 24" width="24" xmlns="http://www.w3.org/2000/svg"><g stroke="#2a353d"><g stroke-width="1.5"><path d="m17 6c2.3456 0 3.0184 0 3.8263.61994.208.1596.3942.34578.5538.55378.6199.80792.6199 1.9807.6199 4.32628v4.5c0 2.8284 0 4.2426-.8787 5.1213s-2.2929.8787-5.1213.8787h-8c-2.82843 0-4.24264 0-5.12132-.8787s-.87868-2.2929-.87868-5.1213v-4.5c0-2.34558 0-3.51836.61994-4.32628.1596-.208.34578-.39418.55378-.55378.80792-.61994 1.4807-.61994 3.82628-.61994" stroke-linecap="round"/><path d="m17 7-.8858-2.21457c-.3822-.95547-.7148-2.03933-1.6976-2.52588-.5242-.25955-1.155-.25955-2.4166-.25955s-1.8924 0-2.41665.25955c-.98275.48655-1.31534 1.57041-1.69752 2.52588l-.88583 2.21457" stroke-linecap="round" stroke-linejoin="round"/><path d="m15.5 14c0 1.933-1.567 3.5-3.5 3.5s-3.5-1.567-3.5-3.5 1.567-3.5 3.5-3.5 3.5 1.567 3.5 3.5z"/></g><path d="m11.9998 6h.009" stroke-linecap="round" stroke-linejoin="round" stroke-width="2"/></g></svg>