<svg fill="none" height="24" viewBox="0 0 24 24" width="24" xmlns="http://www.w3.org/2000/svg"><g stroke="#2a353d"><g stroke-width="1.5"><path d="m12 18c-1.3325.6224-3.08293 1-5 1-1.06592 0-2.08031-.1167-3-.3274-.5912-.1354-.88681-.2031-1.24102-.4834-.20202-.1598-.45415-.4763-.56486-.7089-.19412-.4078-.19412-.8033-.19412-1.5943v-10.77203c0-.98483 1.04003-1.66124 2-1.44137.91969.21065 1.93408.3274 3 .3274 1.91707 0 3.6675-.37764 5-1s3.0829-1 5-1c1.0659 0 2.0803.11675 3 .3274.5912.13541.8868.20311 1.241.48339.202.15985.4542.47626.5649.70887.1941.40785.1941.80333.1941 1.59431v10.77203c0 .9849-1.04 1.6613-2 1.4414-.9197-.2107-1.9341-.3274-3-.3274-1.9171 0-3.6675.3776-5 1z"/><path d="m2 21c1.33254.6224 3.08293 1 5 1s3.6675-.3776 5-1 3.0829-1 5-1 3.6675.3776 5 1" stroke-linecap="round"/><path d="m14.5 10.5c0 1.3807-1.1193 2.5-2.5 2.5s-2.5-1.1193-2.5-2.5c0-1.38071 1.1193-2.5 2.5-2.5s2.5 1.11929 2.5 2.5z"/></g><path d="m5.5 11.5v.009" stroke-linecap="round" stroke-linejoin="round" stroke-width="2"/><path d="m18.5 9.49219v.00898" stroke-linecap="round" stroke-linejoin="round" stroke-width="2"/></g></svg>