<svg fill="none" height="24" viewBox="0 0 24 24" width="24" xmlns="http://www.w3.org/2000/svg"><g stroke="#2a353d" stroke-linecap="round" stroke-width="1.5"><path d="m11.5704 21h-1.0634c-4.01022 0-6.01535 0-7.26117-1.5458-1.24583-1.5459-1.24583-4.0338-1.24583-9.0098v-3.22545c0-1.91738 0-2.87608.32354-3.59544.23062-.51279.57163-.9359.98489-1.22206.57976-.40145 1.3524-.40145 2.89768-.40145.99 0 1.485 0 1.91832.20162.98934.46034 1.3973 1.57549 1.84373 2.68335l.53884 1.33725m-3.50287 0h8.54457c1.7922 0 2.6882 0 3.3319.53368.2787.23104.518.52791.7042.87368.2899.53846.3844 1.21925.4152 2.28709"/><path d="m4.5956 12.5755c.43133-1.1491.64699-1.7237 1.06787-2.0845.6794-.58247 1.65618-.4848 2.49322-.4848h9.09571c2.4768 0 3.7152 0 4.3332.7969 1.0608 1.368-.1907 3.5871-.6948 4.9301-.9037 2.4078-1.3556 3.6117-2.2556 4.3459-1.3714 1.1188-3.3662.9044-5.0213.9044h-3.67666c-3.54304 0-5.31455 0-6.23581-1.0969-1.70068-2.0249.12929-5.2733.89417-7.3111z"/></g></svg>