<svg fill="none" height="24" viewBox="0 0 24 24" width="24" xmlns="http://www.w3.org/2000/svg"><path d="m11.75 4.5c0-.41421-.3358-.75-.75-.75s-.75.33579-.75.75zm-1.5 14.5c0 .4142.3358.75.75.75s.75-.3358.75-.75zm0-14.5v14.5h1.5v-14.5z" fill="#2a353d"/><path d="m8.5 17c-2.64886.3971-4.5 1.3716-4.5 2.4268 0 1.4211 3.35786 2.5732 7.5 2.5732 4.1421 0 7.5-1.1521 7.5-2.5732 0-1.1204-2.087-2.0736-5-2.4268" stroke="#2a353d" stroke-linecap="round" stroke-width="1.5"/><path d="m15.3187 3.14389-.3288.67411zm.894.43603-.3287.6741zm-5.2127 8.42008h-.75c0 .2586.1332.499.3525.636.2194.1371.4938.1515.7263.0381zm5.2127-2.54217-.3287-.67411zm-1.2228-5.63983.8941.43602.6575-1.34821-.8941-.43603zm.8941.43602c1.2873.62781 2.1674 1.05964 2.7375 1.46092.5565.39172.6285.62259.6285.80393h1.5c0-.91063-.5592-1.53358-1.2651-2.03051-.6924-.48738-1.7059-.97903-2.9434-1.58255zm-4.5552 8.42008 5.2127-2.5422-.6575-1.34818-5.2128 2.54218zm5.2127-2.5422c1.2375-.60348 2.251-1.09513 2.9434-1.58251.7059-.49693 1.2651-1.11988 1.2651-2.03052h-1.5c0 .18135-.072.41222-.6285.80394-.5701.40128-1.4502.83311-2.7375 1.46091zm-6.2915-4.30261v6.17071h1.5v-6.17071zm5.3974-3.35951c-.9464-.46157-1.7323-.84704-2.3706-1.04919-.6491-.20561-1.3355-.2848-1.9669.10779l.7921 1.27382c.0746-.04639.2257-.1088.7219.04837.5072.16063 1.1746.48395 2.166.96743zm-3.8974 3.35951c0-1.10015.002-1.83917.0801-2.36313.0762-.512.1981-.6181.2719-.66396l-.7921-1.27382c-.6322.39311-.8633 1.04401-.9635 1.71676-.0984.66079-.0964 1.53428-.0964 2.58415z" fill="#2a353d"/></svg>