<svg fill="none" height="24" viewBox="0 0 24 24" width="24" xmlns="http://www.w3.org/2000/svg"><g stroke="#2a353d" stroke-width="1.5"><path d="m17 14.3045c0-.3457 0-.5185.052-.6725.1512-.4476.5498-.6212.9491-.8031.4489-.2045.6733-.3067.8957-.3247.2525-.0204.5054.034.7212.1551.2861.1605.4856.4656.6899.7137.9434 1.1458 1.415 1.7188 1.5876 2.3506.1393.5098.1393 1.043 0 1.5528-.2517.9215-1.047 1.694-1.6357 2.409-.3011.3657-.4517.5486-.6418.6553-.2158.1211-.4687.1755-.7212.1551-.2224-.018-.4468-.1202-.8957-.3247-.3993-.1819-.7979-.3555-.9491-.8031-.052-.154-.052-.3268-.052-.6725z"/><path d="m7 14.3046c0-.4352-.01222-.8264-.36409-1.1324-.12798-.1113-.29766-.1886-.637-.3432-.4489-.2044-.67335-.3066-.89575-.3246-.66725-.054-1.02624.4014-1.41103.8688-.94338 1.1458-1.41507 1.7187-1.58767 2.3505-.13928.5099-.13928 1.0431 0 1.5529.25174.9215 1.04706 1.6939 1.63575 2.409.37108.4507.72556.8619 1.36295.8104.2224-.018.44685-.1203.89575-.3247.33934-.1546.50902-.2319.637-.3432.35187-.306.36409-.6971.36409-1.1324z"/><path d="m19 12.5v-2c0-3.86599-3.134-7-7-7-3.86599 0-7 3.13401-7 7v2" stroke-linecap="square" stroke-linejoin="round"/></g></svg>