<svg fill="none" height="24" viewBox="0 0 24 24" width="24" xmlns="http://www.w3.org/2000/svg"><g stroke="#2a353d" stroke-width="1.5"><path d="m21.7827 17.5c.2169-.5371.2921-1.1189.1125-1.7763-.1726-.6318-.6443-1.2047-1.5877-2.3505-.3847-.4674-.7437-.9228-1.411-.8688-.4615.0373-1.0276.3297-1.3965.6108" stroke-linecap="round"/><path d="m7 14.3046c0-.4352-.01222-.8264-.36409-1.1324-.12798-.1113-.29766-.1886-.637-.3432-.4489-.2044-.67335-.3066-.89575-.3246-.66725-.054-1.02624.4014-1.41103.8688-.94338 1.1458-1.41507 1.7187-1.58767 2.3505-.13928.5099-.13928 1.0431 0 1.5529.25174.9215 1.04706 1.6939 1.63575 2.409.37108.4507.72556.8619 1.36295.8104.2224-.018.44685-.1203.89575-.3247.33934-.1546.50902-.2319.637-.3432.35187-.306.36409-.6971.36409-1.1324z"/><path d="m2 2 20 20" stroke-linecap="round"/></g><path d="m5 10.5h.75zm-.75 1.9999v.75h1.5v-.75zm2.8542-5.55568c.24541-.33369.17383-.80314-.15986-1.04854-.33369-.24541-.80314-.17384-1.04854.15986zm-2.8542 3.55578v1.9999h1.5v-1.9999zm1.5 0c0-1.32597.54871-2.46049 1.3542-3.55578l-1.2084-.88868c-.90067 1.2247-1.6458 2.66975-1.6458 4.44446z" fill="#2a353d"/><path d="m18.2499 12.5v.75h1.5v-.75zm-10.11317-8.65615c-.36238.20063-.49351.65704-.29288 1.01942s.65704.49351 1.01942.29288zm3.86317.40615c3.4518 0 6.25 2.79822 6.25 6.25h1.5c0-4.28021-3.4698-7.75-7.75-7.75zm6.25 6.25v2h1.5v-2zm-9.38663-5.34385c.93249-.51626 2.07493-.90615 3.13663-.90615v-1.5c-1.3944 0-2.78896.49912-3.86317 1.09385z" fill="#2a353d"/></svg>