<svg fill="none" height="24" viewBox="0 0 24 24" width="24" xmlns="http://www.w3.org/2000/svg"><g stroke="#2a353d" stroke-linecap="round" stroke-linejoin="round" stroke-width="1.5"><path d="m4 18.6458v-10.59154c0-2.85401 0-4.28101.87868-5.16763.87868-.88663 2.29289-.88663 5.12132-.88663h4c2.8284 0 4.2426 0 5.1213.88663.8787.88662.8787 2.31362.8787 5.16763v10.59154c0 1.5117 0 2.2675-.462 2.565-.7549.4863-1.9219-.5334-2.5089-.9035-.485-.3059-.7274-.4588-.9966-.4676-.2908-.0096-.5376.1371-1.0616.4676l-1.9109 1.2051c-.5155.325-.7732.4876-1.06.4876s-.5445-.1626-1.06-.4876l-1.91087-1.2051c-.48498-.3059-.72747-.4588-.9966-.4676-.29081-.0096-.5376.1371-1.06166.4676-.58692.3701-1.754 1.3898-2.50892.9035-.46195-.2975-.46195-1.0533-.46195-2.565z"/><path d="m11 11h-3"/><path d="m14 7h-6"/></g></svg>