<svg fill="none" height="24" viewBox="0 0 24 24" width="24" xmlns="http://www.w3.org/2000/svg"><g stroke="#2a353d" stroke-linecap="round" stroke-width="1.5"><path d="m9.14339 10.691.20692-.2069c1.97869-1.97878 5.18689-1.97878 7.16559 0 1.9788 1.9787 1.9788 5.1869 0 7.1656l-2.8662 2.8662c-1.9787 1.9788-5.18691 1.9788-7.16565 0-1.97873-1.9787-1.97873-5.1869 0-7.1656l.46435-.4643"/><path d="m17.0516 11.114.4643-.4643c1.9788-1.97875 1.9788-5.18691 0-7.16565-1.9787-1.97873-5.1869-1.97873-7.1656 0l-2.86625 2.86626c-1.97873 1.97873-1.97873 5.18689 0 7.16559 1.97874 1.9788 5.18695 1.9788 7.16565 0l.2069-.2069"/></g></svg>