<svg fill="none" height="24" viewBox="0 0 24 24" width="24" xmlns="http://www.w3.org/2000/svg"><g stroke="#2a353d" stroke-width="1.5"><path d="m7 18c-1.82893.4117-3 1.0443-3 1.7537 0 1.2406 3.58172 2.2463 8 2.2463 4.4183 0 8-1.0057 8-2.2463 0-.7094-1.1711-1.342-3-1.7537" stroke-linecap="round"/><path d="m14.5 9c0 1.3807-1.1193 2.5-2.5 2.5s-2.5-1.1193-2.5-2.5c0-1.38071 1.1193-2.5 2.5-2.5s2.5 1.11929 2.5 2.5z"/><path d="m13.2574 17.4936c-.3373.3248-.7881.5064-1.2572.5064-.4692 0-.92-.1816-1.2573-.5064-3.0886-2.9928-7.22771-6.3361-5.20919-11.18987 1.09139-2.62441 3.71123-4.30373 6.46649-4.30373 2.7552 0 5.375 1.67933 6.4664 4.30373 2.016 4.84767-2.113 8.20737-5.2092 11.18987z"/></g></svg>