<svg fill="none" height="24" viewBox="0 0 24 24" width="24" xmlns="http://www.w3.org/2000/svg"><g stroke="#2a353d" stroke-linejoin="round" stroke-width="1.5"><path d="m7 14 1.9954-2.3945c.63613-.7633.9542-1.145 1.3379-1.145.3838 0 .7018.3817 1.338 1.145l.6574.789c.6362.7633.9542 1.145 1.338 1.145.3837 0 .7018-.3817 1.3379-1.145l1.9954-2.3945" stroke-linecap="round"/><path d="m12 22c5.5228 0 10-4.4772 10-10 0-5.52285-4.4772-10-10-10-5.52285 0-10 4.47715-10 10 0 1.3789.27907 2.6926.78382 3.8877.27896.6604.41844.9907.43571 1.2403s-.05619.5241-.20311 1.0732l-1.01642 3.7988 3.79877-1.0164c.54911-.1469.82367-.2204 1.07325-.2031.24959.0172.57983.1567 1.24033.4357 1.1951.5047 2.50875.7838 3.88765.7838z"/></g></svg>