<svg fill="none" height="24" viewBox="0 0 24 24" width="24" xmlns="http://www.w3.org/2000/svg"><g stroke="#2a353d" stroke-width="1.5"><path d="m8 22v-3c0-1.8856 0-2.8284.58579-3.4142.58578-.5858 1.52861-.5858 3.41421-.5858s2.8284 0 3.4142.5858.5858 1.5286.5858 3.4142v3" stroke-linejoin="round"/><path d="m10 7h4" stroke-linecap="round" stroke-linejoin="round"/><path d="m3 11.8584c0-4.57641 0-6.86464 1.38674-8.31446.05123-.05356.10364-.10597.1572-.1572 1.44982-1.38674 3.73805-1.38674 8.31446-1.38674 1.0846 0 1.6071.00376 2.1044.18936.4789.17874.8801.51303 1.6824 1.18163l2.1959 1.82993c1.0616.88469 1.5924 1.32703 1.8757 1.93174.2832.60471.2832 1.29567.2832 2.67759v3.18975c0 3.7497 0 5.6246-.9549 6.9389-.3084.4245-.6817.7978-1.1062 1.1062-1.3143.9549-3.1892.9549-6.9389.9549-3.74973 0-5.6246 0-6.93893-.9549-.42447-.3084-.79776-.6817-1.10616-1.1062-.95491-1.3143-.95491-3.1892-.95491-6.9389z"/></g></svg>