<svg fill="none" height="24" viewBox="0 0 24 24" width="24" xmlns="http://www.w3.org/2000/svg"><g stroke="#2a353d" stroke-linecap="round" stroke-width="1.5"><path d="m11.9982 2.00009c-3.00777 0-4.95802 2.01899-7.26449 2.7549-.93782.29923-1.40674.44884-1.59651.65975s-.24534.5191-.35648 1.13549c-1.18929 6.59587 1.41018 12.69387 7.60958 15.06737.6661.255.9991.3825 1.6112.3825.612 0 .9451-.1275 1.6111-.3825 6.199-2.3736 8.796-8.4715 7.6064-15.06738-.1112-.61649-.1668-.92473-.3566-1.13564s-.6587-.36044-1.5965-.6595c-2.3074-.73584-4.2598-2.75499-7.2677-2.75499z" stroke-linejoin="round"/><path d="m12 7.00009v2"/></g></svg>