<svg fill="none" height="24" viewBox="0 0 24 24" width="24" xmlns="http://www.w3.org/2000/svg"><g stroke="#2a353d" stroke-linecap="round" stroke-width="1.5"><path d="m18 7c.7745.16058 1.3588.42859 1.8284.87589 1.1716 1.11592 1.1716 2.91201 1.1716 6.50411s0 5.3881-1.1716 6.5041c-1.1715 1.1159-3.0572 1.1159-6.8284 1.1159h-2c-3.77124 0-5.65685 0-6.82843-1.1159-1.17157-1.116-1.17157-2.912-1.17157-6.5041s0-5.38819 1.17157-6.50411c.46961-.4473 1.05393-.71531 1.82843-.87589"/><path d="m12.0253 2.00052-.0253 11.99948m.0253-11.99948c-.1626-.00673-.3262.05139-.472.1744-.9064.76514-2.5533 2.75394-2.5533 2.75394m3.0253-2.92834c.1458.00605.2909.06424.4215.17456.9063.76529 2.5532 2.75378 2.5532 2.75378" stroke-linejoin="round"/></g></svg>