<svg fill="none" height="24" viewBox="0 0 24 24" width="24" xmlns="http://www.w3.org/2000/svg"><g stroke="#2a353d" stroke-linecap="round" stroke-width="1.5"><path d="m17 12c0 2.7614-2.2386 5-5 5-2.76142 0-5-2.2386-5-5 0-2.76142 2.23858-5 5-5"/><path d="m14 2.20004c-.6462-.13118-1.3151-.20004-2-.20004-5.52285 0-10 4.47715-10 10 0 5.5228 4.47715 10 10 10 5.5228 0 10-4.4772 10-10 0-.6849-.0689-1.3538-.2-2"/><path d="m16.6031 7.39687-4.6031 4.60313m4.6031-4.60313-.325-1.24558c-.2462-.94358.0909-2.03214.8706-2.81185l1.1493-1.14938c.3061-.30605.7799-.23037.8765.14001l.5164 1.97905 1.979.51636c.3704.09663.4461.57043.14.87648l-1.1493 1.14939c-.7797.7797-1.8683 1.1167-2.8119.87051z" stroke-linejoin="round"/></g></svg>