<svg fill="none" height="24" viewBox="0 0 24 24" width="24" xmlns="http://www.w3.org/2000/svg"><g stroke="#2a353d" stroke-linecap="round" stroke-width="1.5"><path d="m15.1312 2.5c-.985-.32445-2.0376-.5-3.1312-.5-5.52285 0-10 4.47715-10 10 0 5.5228 4.47715 10 10 10 5.5228 0 10-4.4772 10-10 0-1.0452-.1604-2.05296-.4578-3"/><g stroke-linejoin="round"><path d="m17 12c0 2.7614-2.2386 5-5 5-2.76142 0-5-2.2386-5-5 0-2.76142 2.23858-5 5-5"/><path d="m19.5 4.5-7.5 7.5m7.5-7.5v-2.5m0 2.5h2.5"/></g></g></svg>