<svg fill="none" height="24" viewBox="0 0 24 24" width="24" xmlns="http://www.w3.org/2000/svg"><g stroke="#2a353d" stroke-linecap="round" stroke-linejoin="round" stroke-width="1.5"><path d="m2 12.5001c0-1.1045.89543-2 2-2 1.65685 0 3 1.3432 3 3v4c0 1.6569-1.34315 3-3 3-1.10457 0-2-.8954-2-2z"/><path d="m15.4787 7.80638-.2663.86008c-.2182.70477-.3273 1.05715-.2434 1.33544.0679.2252.2169.4192.42.5469.251.1579.6307.1579 1.3901.1579h.404c2.5701 0 3.8551 0 4.4621.7607.0693.087.131.1794.1844.2764.4669.8485-.0639 1.9915-1.1256 4.2774-.9743 2.0978-1.4615 3.1467-2.366 3.7641-.0875.0597-.1775.1161-.2697.169-.9523.5458-2.1321.5458-4.4919.5458h-.5118c-2.8589 0-4.28832 0-5.17646-.8605s-.88814-2.2455-.88814-5.0156v-.9735c0-1.4557 0-2.1836.25834-2.8498s.75301-1.21393 1.74235-2.30946l4.09141-4.53056c.1026-.11362.1539-.17044.1992-.20981.4222-.36747 1.0739-.3261 1.4431.0916.0396.04475.0828.10756.1692.23319.1352.19651.2028.29477.2618.39212.5274.87147.687 1.90671.4454 2.88949-.027.10977-.062.22295-.1321.44911z"/></g></svg>