<svg fill="none" height="24" viewBox="0 0 24 24" width="24" xmlns="http://www.w3.org/2000/svg"><g stroke="#2a353d" stroke-width="1.5"><g stroke-linecap="round"><path d="m20.774 18c.7493 0 1.3453-.4715 1.8805-1.1309 1.0954-1.3497-.7032-2.4283-1.3891-2.9565-.6974-.537-1.476-.8412-2.2654-.9126m-1-2c1.3807 0 2.5-1.11929 2.5-2.5s-1.1193-2.5-2.5-2.5"/><path d="m3.22596 18c-.7493 0-1.34529-.4715-1.88041-1.1309-1.095461-1.3497.70312-2.4283 1.3891-2.9565.69732-.537 1.47593-.8412 2.26535-.9126m.5-2c-1.38071 0-2.5-1.11929-2.5-2.5s1.11929-2.5 2.5-2.5"/><path d="m8.0838 15.1112c-1.02177.6318-3.70081 1.9219-2.0691 3.5362.79708.7886 1.68482 1.3526 2.80093 1.3526h6.36877c1.1161 0 2.0038-.564 2.8009-1.3526 1.6317-1.6143-1.0473-2.9044-2.0691-3.5362-2.3961-1.4816-5.4363-1.4816-7.8324 0z" stroke-linejoin="round"/></g><path d="m15.5 7.5c0 1.933-1.567 3.5-3.5 3.5s-3.5-1.567-3.5-3.5 1.567-3.5 3.5-3.5 3.5 1.567 3.5 3.5z"/></g></svg>