<svg fill="none" height="24" viewBox="0 0 24 24" width="24" xmlns="http://www.w3.org/2000/svg"><g stroke="#2a353d" stroke-width="1.5"><path d="m11 8h2" stroke-linecap="round"/><path d="m2 11c0-3.29983 0-4.94975 1.02513-5.97487 1.02512-1.02513 2.67504-1.02513 5.97487-1.02513h1c3.2998 0 4.9497 0 5.9749 1.02513 1.0251 1.02512 1.0251 2.67504 1.0251 5.97487v2c0 3.2998 0 4.9497-1.0251 5.9749-1.0252 1.0251-2.6751 1.0251-5.9749 1.0251h-1c-3.29983 0-4.94975 0-5.97487-1.0251-1.02513-1.0252-1.02513-2.6751-1.02513-5.9749z"/><path d="m17 8.90585.1259-.10389c2.1158-1.74573 3.1737-2.6186 4.0239-2.19714s.8502 1.81873.8502 4.61328v1.5638c0 2.7946 0 4.1918-.8502 4.6133-.8502.4214-1.9081-.4514-4.0239-2.1972l-.1259-.1039" stroke-linecap="round"/></g></svg>