<svg fill="none" height="24" viewBox="0 0 24 24" width="24" xmlns="http://www.w3.org/2000/svg"><g stroke="#2a353d" stroke-linecap="round" stroke-linejoin="round" stroke-width="1.5"><path d="m14 14.8135v-5.62704c0-3.1452 0-4.7178-.9253-5.10916-.9253-.39137-2.0144.72063-4.19238 2.94462-1.12793 1.15173-1.77147 1.40677-3.37628 1.40677-1.40347 0-2.1052 0-2.60929.34393-1.0464.71393-.88823 2.10938-.88823 3.22738s-.15817 2.5134.88823 3.2274c.50409.3439 1.20582.3439 2.60929.3439 1.60481 0 2.24835.2551 3.37628 1.4068 2.17798 2.224 3.26708 3.336 4.19238 2.9446s.9253-1.964.9253-5.1092z"/><path d="m17 9c.6254.81968 1 1.8634 1 3s-.3746 2.1803-1 3"/><path d="m20 7c1.2508 1.36613 2 3.1057 2 5s-.7492 3.6339-2 5"/></g></svg>