<svg fill="none" height="24" viewBox="0 0 24 24" width="24" xmlns="http://www.w3.org/2000/svg"><path d="m18 14.8135v-5.62704c0-3.1452 0-4.7178-.926-5.10916-.9259-.39137-2.0157.72063-4.1953 2.94462-1.1288 1.15173-1.7728 1.40677-3.3787 1.40677-1.1121 0-2.47251-.14738-3.16294.90697-.33706.51472-.33706 1.23124-.33706 2.66434s0 2.1496.33706 2.6643c.69043 1.0544 2.05084.907 3.16294.907 1.606 0 2.2499.2551 3.3787 1.4068 2.1796 2.224 3.2694 3.336 4.1953 2.9446.926-.3914.926-1.964.926-5.1092z" stroke="#2a353d" stroke-linecap="round" stroke-linejoin="round" stroke-width="1.5"/></svg>