<svg fill="none" height="24" viewBox="0 0 24 24" width="24" xmlns="http://www.w3.org/2000/svg"><g stroke="#2a353d" stroke-width="1.5"><path d="m16 14c0 .8284.6716 1.5 1.5 1.5s1.5-.6716 1.5-1.5-.6716-1.5-1.5-1.5-1.5.6716-1.5 1.5z"/><path d="m10 7h6c2.8284 0 4.2426 0 5.1213.87868s.8787 2.29292.8787 5.12132v2c0 2.8284 0 4.2426-.8787 5.1213s-2.2929.8787-5.1213.8787h-6c-3.77124 0-5.65685 0-6.82843-1.1716-1.17157-1.1715-1.17157-3.0572-1.17157-6.8284v-2c0-3.77124 0-5.65685 1.17157-6.82843 1.17158-1.17157 3.05719-1.17157 6.82843-1.17157h4c.93 0 1.395 0 1.7765.10222 1.0352.2774 1.8439 1.08605 2.1213 2.12132.1022.3815.1022.84649.1022 1.77646" stroke-linecap="round"/></g></svg>